<svg width="120" height="120" viewBox="0 0 120 120" fill="none"
    xmlns="http://www.w3.org/2000/svg">
    <path fill-rule="evenodd" clip-rule="evenodd" d="M60 119.5C92.8609 119.5 119.5 92.8609 119.5 60C119.5 27.1391 92.8609 0.5 60 0.5C27.1391 0.5 0.5 27.1391 0.5 60C0.5 92.8609 27.1391 119.5 60 119.5ZM76.5822 49.0185C92.2223 37.4568 92.9952 36.8327 92.2523 36.5356C91.2109 36.1486 28.6232 36.1486 27.6117 36.5642C26.9575 36.8327 27.136 37.0098 30.4361 39.4475C32.3989 40.8741 39.7733 46.3137 46.8491 51.5447C53.9263 56.7758 59.8135 61.0857 59.932 61.1157C60.0506 61.1457 67.5435 55.7061 76.5822 49.0185ZM57.4049 69.2C56.9577 68.7844 49.4948 63.2264 40.8133 56.8957C32.1618 50.5351 24.6089 45.0056 24.0731 44.6186L23.1217 43.876L23.1817 61.5612L23.2731 79.2451L24.1646 80.6717C24.8189 81.7428 25.5017 82.3669 26.6617 82.9609L28.2675 83.7935L92.3123 83.645L93.7695 82.7539C94.8395 82.0698 95.4338 81.4172 96.0581 80.2276L96.8609 78.5925L96.8009 61.2942L96.7123 44.0245L79.765 56.4787C70.4578 63.3449 62.4892 69.2 62.0735 69.4671C61.6278 69.7941 60.7649 69.9726 59.8134 69.9726C58.5349 69.9726 58.0891 69.8241 57.4049 69.2Z" fill="white"/>
</svg>
