<svg width="120" height="120" viewBox="0 0 120 120" fill="none"
    xmlns="http://www.w3.org/2000/svg">
    <path fill-rule="evenodd" clip-rule="evenodd" d="M120 0H0V120H120V0ZM40.7353 94.7231L31.5525 100.281L31.552 100.28C34.2103 105.918 39.4467 110.59 48.4678 110.59C58.4569 110.59 65.3034 105.274 65.3034 93.5939V55.0917H54.0267V93.4345C54.0267 99.0727 51.69 100.522 47.9845 100.522C44.1187 100.522 42.5072 97.8642 40.7353 94.7231ZM80.6105 93.7561L71.4286 99.0722C74.7309 105.597 81.4969 110.592 91.9683 110.592C102.682 110.592 110.656 105.034 110.656 94.8839C110.656 85.4602 105.259 81.2719 95.6733 77.1633L92.8542 75.9553C88.0214 73.8609 85.927 72.4908 85.927 69.1078C85.927 66.3694 88.0214 64.275 91.3242 64.275C94.5464 64.275 96.6398 65.6442 98.5734 69.1078L107.354 63.4687C103.649 56.9442 98.4938 54.4467 91.3247 54.4467C81.2555 54.4467 74.8116 60.8911 74.8116 69.3492C74.8116 78.532 80.2083 82.882 88.3444 86.3447L91.163 87.5541C96.3183 89.8087 99.3792 91.1784 99.3792 95.0447C99.3792 98.2669 96.3998 100.603 91.7269 100.603C86.1694 100.603 83.0278 97.7034 80.6105 93.7561Z" fill="#F7DF1E"/>
</svg>
