<svg width="120" height="120" viewBox="0 0 120 120" fill="none"
    xmlns="http://www.w3.org/2000/svg">
    <path fill-rule="evenodd" clip-rule="evenodd" d="M59.5 0C26.6391 0 0 26.6391 0 59.5C0 92.3609 26.6391 119 59.5 119C92.3609 119 119 92.3609 119 59.5C119 26.6391 92.3609 0 59.5 0ZM35.3063 43.7506C40.008 43.7506 42.9362 40.638 42.9362 36.7479C42.8487 32.7756 40.008 29.75 35.3951 29.75C30.7823 29.75 27.7667 32.7756 27.7667 36.7479C27.7667 40.638 30.6933 43.7506 35.22 43.7506H35.3063ZM42.0479 89.7944V49.2804H28.564V89.7944H42.0479ZM90.6765 66.5649L90.676 89.7944H77.1926V68.1193C77.1926 62.6751 75.2412 58.96 70.36 58.96C66.6348 58.96 64.4159 61.4645 63.4414 63.8834C63.0849 64.7504 62.9974 65.9582 62.9974 67.1691V89.7954H49.5117C49.5117 89.7954 49.6894 53.0832 49.5117 49.2816H62.9974V55.0199C64.7868 52.2613 67.9921 48.3291 75.1512 48.3291C84.0244 48.3291 90.6765 54.121 90.6765 66.5649Z" fill="white"/>
</svg>
