<svg width="180" height="50" viewBox="0 0 180 50" fill="none" xmlns="http://www.w3.org/2000/svg">
<rect width="180" height="50" fill="#112222"/>
<path d="M33.581 21.93C34.013 21.93 34.367 21.879 34.643 21.777C34.925 21.669 35.15 21.528 35.318 21.354C35.486 21.18 35.603 20.982 35.669 20.76C35.735 20.532 35.768 20.298 35.768 20.058C35.768 19.794 35.729 19.557 35.651 19.347C35.573 19.137 35.447 18.96 35.273 18.816C35.099 18.666 34.871 18.552 34.589 18.474C34.313 18.396 33.971 18.357 33.563 18.357H31.268V21.93H33.581ZM31.268 12.993V16.521H33.041C33.419 16.521 33.755 16.491 34.049 16.431C34.343 16.365 34.589 16.263 34.787 16.125C34.985 15.987 35.135 15.807 35.237 15.585C35.345 15.357 35.399 15.084 35.399 14.766C35.399 14.442 35.354 14.166 35.264 13.938C35.18 13.71 35.048 13.527 34.868 13.389C34.688 13.251 34.46 13.152 34.184 13.092C33.908 13.026 33.581 12.993 33.203 12.993H31.268ZM33.203 10.941C34.079 10.941 34.826 11.025 35.444 11.193C36.068 11.355 36.575 11.589 36.965 11.895C37.361 12.195 37.649 12.561 37.829 12.993C38.009 13.425 38.099 13.908 38.099 14.442C38.099 14.742 38.054 15.03 37.964 15.306C37.88 15.582 37.745 15.843 37.559 16.089C37.379 16.329 37.145 16.548 36.857 16.746C36.569 16.944 36.227 17.112 35.831 17.25C36.719 17.46 37.376 17.802 37.802 18.276C38.228 18.75 38.441 19.365 38.441 20.121C38.441 20.673 38.333 21.186 38.117 21.66C37.907 22.134 37.598 22.545 37.19 22.893C36.782 23.241 36.278 23.514 35.678 23.712C35.084 23.904 34.4 24 33.626 24H28.568V10.941H33.203ZM54.9216 17.466C54.9216 18.42 54.7596 19.305 54.4356 20.121C54.1176 20.937 53.6646 21.642 53.0766 22.236C52.4946 22.83 51.7926 23.298 50.9706 23.64C50.1486 23.976 49.2366 24.144 48.2346 24.144C47.2326 24.144 46.3206 23.976 45.4986 23.64C44.6766 23.298 43.9716 22.83 43.3836 22.236C42.7956 21.642 42.3396 20.937 42.0156 20.121C41.6976 19.305 41.5386 18.42 41.5386 17.466C41.5386 16.512 41.6976 15.63 42.0156 14.82C42.3396 14.004 42.7956 13.299 43.3836 12.705C43.9716 12.111 44.6766 11.646 45.4986 11.31C46.3206 10.968 47.2326 10.797 48.2346 10.797C49.2366 10.797 50.1486 10.968 50.9706 11.31C51.7926 11.646 52.4946 12.114 53.0766 12.714C53.6646 13.308 54.1176 14.013 54.4356 14.829C54.7596 15.639 54.9216 16.518 54.9216 17.466ZM52.1586 17.466C52.1586 16.782 52.0686 16.17 51.8886 15.63C51.7086 15.084 51.4476 14.622 51.1056 14.244C50.7696 13.86 50.3586 13.569 49.8726 13.371C49.3926 13.167 48.8466 13.065 48.2346 13.065C47.6226 13.065 47.0736 13.167 46.5876 13.371C46.1016 13.569 45.6876 13.86 45.3456 14.244C45.0096 14.622 44.7516 15.084 44.5716 15.63C44.3916 16.17 44.3016 16.782 44.3016 17.466C44.3016 18.156 44.3916 18.774 44.5716 19.32C44.7516 19.86 45.0096 20.319 45.3456 20.697C45.6876 21.075 46.1016 21.366 46.5876 21.57C47.0736 21.768 47.6226 21.867 48.2346 21.867C48.8466 21.867 49.3926 21.768 49.8726 21.57C50.3586 21.366 50.7696 21.075 51.1056 20.697C51.4476 20.319 51.7086 19.86 51.8886 19.32C52.0686 18.774 52.1586 18.156 52.1586 17.466ZM65.0474 17.349H69.5294V22.74C68.8634 23.226 68.1524 23.583 67.3964 23.811C66.6464 24.033 65.8514 24.144 65.0114 24.144C63.9374 24.144 62.9654 23.979 62.0954 23.649C61.2254 23.313 60.4814 22.848 59.8634 22.254C59.2454 21.66 58.7684 20.955 58.4324 20.139C58.0964 19.323 57.9284 18.432 57.9284 17.466C57.9284 16.488 58.0874 15.591 58.4054 14.775C58.7294 13.959 59.1884 13.257 59.7824 12.669C60.3764 12.081 61.0934 11.622 61.9334 11.292C62.7794 10.962 63.7244 10.797 64.7684 10.797C65.3084 10.797 65.8124 10.842 66.2804 10.932C66.7484 11.016 67.1804 11.136 67.5764 11.292C67.9724 11.442 68.3354 11.622 68.6654 11.832C68.9954 12.042 69.2954 12.273 69.5654 12.525L68.7824 13.731C68.6624 13.923 68.5064 14.04 68.3144 14.082C68.1224 14.124 67.9124 14.076 67.6844 13.938C67.4684 13.806 67.2554 13.689 67.0454 13.587C66.8414 13.479 66.6224 13.386 66.3884 13.308C66.1544 13.23 65.8994 13.17 65.6234 13.128C65.3474 13.086 65.0294 13.065 64.6694 13.065C64.0634 13.065 63.5144 13.17 63.0224 13.38C62.5304 13.59 62.1104 13.887 61.7624 14.271C61.4204 14.655 61.1564 15.117 60.9704 15.657C60.7844 16.197 60.6914 16.8 60.6914 17.466C60.6914 18.186 60.7934 18.831 60.9974 19.401C61.2014 19.965 61.4894 20.442 61.8614 20.832C62.2334 21.222 62.6774 21.519 63.1934 21.723C63.7154 21.927 64.2944 22.029 64.9304 22.029C65.3624 22.029 65.7464 21.987 66.0824 21.903C66.4244 21.813 66.7574 21.693 67.0814 21.543V19.347H65.6054C65.4314 19.347 65.2934 19.302 65.1914 19.212C65.0954 19.116 65.0474 18.996 65.0474 18.852V17.349ZM85.2454 17.466C85.2454 18.42 85.0834 19.299 84.7594 20.103C84.4414 20.901 83.9884 21.588 83.4004 22.164C82.8184 22.74 82.1164 23.19 81.2944 23.514C80.4724 23.838 79.5604 24 78.5584 24H73.5364V10.941H78.5584C79.5604 10.941 80.4724 11.103 81.2944 11.427C82.1164 11.751 82.8184 12.204 83.4004 12.786C83.9884 13.362 84.4414 14.049 84.7594 14.847C85.0834 15.645 85.2454 16.518 85.2454 17.466ZM82.4734 17.466C82.4734 16.782 82.3834 16.167 82.2034 15.621C82.0234 15.075 81.7654 14.613 81.4294 14.235C81.0934 13.857 80.6824 13.566 80.1964 13.362C79.7164 13.158 79.1704 13.056 78.5584 13.056H76.2544V21.885H78.5584C79.1704 21.885 79.7164 21.786 80.1964 21.588C80.6824 21.384 81.0934 21.093 81.4294 20.715C81.7654 20.331 82.0234 19.866 82.2034 19.32C82.3834 18.774 82.4734 18.156 82.4734 17.466ZM95.5019 19.041L94.0889 15.045C94.0049 14.835 93.9149 14.589 93.8189 14.307C93.7289 14.025 93.6419 13.719 93.5579 13.389C93.4739 13.725 93.3839 14.037 93.2879 14.325C93.1979 14.607 93.1109 14.853 93.0269 15.063L91.6229 19.041H95.5019ZM100.038 24H97.9409C97.7069 24 97.5149 23.946 97.3649 23.838C97.2209 23.724 97.1129 23.58 97.0409 23.406L96.1589 20.913H90.9569L90.0749 23.406C90.0149 23.556 89.9099 23.694 89.7599 23.82C89.6099 23.94 89.4209 24 89.1929 24H87.0779L92.1809 10.941H94.9439L100.038 24ZM114.234 10.941V24H112.839C112.629 24 112.452 23.967 112.308 23.901C112.164 23.829 112.023 23.709 111.885 23.541L105.378 15.261C105.396 15.471 105.408 15.678 105.414 15.882C105.426 16.086 105.432 16.275 105.432 16.449V24H103.047V10.941H104.469C104.583 10.941 104.679 10.947 104.757 10.959C104.841 10.965 104.916 10.986 104.982 11.022C105.048 11.052 105.111 11.094 105.171 11.148C105.231 11.202 105.297 11.274 105.369 11.364L111.921 19.68C111.897 19.452 111.879 19.233 111.867 19.023C111.855 18.807 111.849 18.603 111.849 18.411V10.941H114.234ZM127.558 24H124.84V10.941H127.558V24ZM149.657 10.941L145.607 24H143.168L140.495 15.459C140.453 15.339 140.411 15.207 140.369 15.063C140.327 14.919 140.288 14.766 140.252 14.604C140.216 14.766 140.177 14.919 140.135 15.063C140.093 15.207 140.051 15.339 140.009 15.459L137.309 24H134.861L130.82 10.941H133.088C133.322 10.941 133.517 10.995 133.673 11.103C133.835 11.211 133.94 11.355 133.988 11.535L136.013 18.897C136.061 19.101 136.109 19.323 136.157 19.563C136.211 19.797 136.262 20.046 136.31 20.31C136.364 20.04 136.421 19.788 136.481 19.554C136.541 19.32 136.607 19.101 136.679 18.897L139.037 11.535C139.085 11.385 139.187 11.25 139.343 11.13C139.505 11.004 139.7 10.941 139.928 10.941H140.72C140.954 10.941 141.143 10.998 141.287 11.112C141.437 11.22 141.548 11.361 141.62 11.535L143.969 18.897C144.041 19.089 144.107 19.299 144.167 19.527C144.227 19.749 144.284 19.986 144.338 20.238C144.386 19.986 144.431 19.749 144.473 19.527C144.521 19.299 144.569 19.089 144.617 18.897L146.642 11.535C146.684 11.379 146.786 11.241 146.948 11.121C147.11 11.001 147.305 10.941 147.533 10.941H149.657ZM159.842 13.443C159.758 13.581 159.671 13.683 159.581 13.749C159.497 13.809 159.386 13.839 159.248 13.839C159.116 13.839 158.972 13.794 158.816 13.704C158.666 13.608 158.489 13.506 158.285 13.398C158.081 13.29 157.847 13.191 157.583 13.101C157.319 13.005 157.01 12.957 156.656 12.957C156.032 12.957 155.564 13.098 155.252 13.38C154.94 13.656 154.784 14.019 154.784 14.469C154.784 14.757 154.868 14.997 155.036 15.189C155.21 15.375 155.435 15.537 155.711 15.675C155.993 15.813 156.311 15.936 156.665 16.044C157.019 16.152 157.382 16.272 157.754 16.404C158.126 16.53 158.489 16.68 158.843 16.854C159.197 17.028 159.512 17.247 159.788 17.511C160.07 17.775 160.295 18.099 160.463 18.483C160.637 18.861 160.724 19.323 160.724 19.869C160.724 20.463 160.619 21.021 160.409 21.543C160.205 22.059 159.908 22.512 159.518 22.902C159.128 23.286 158.645 23.589 158.069 23.811C157.499 24.033 156.851 24.144 156.125 24.144C155.711 24.144 155.297 24.102 154.883 24.018C154.475 23.934 154.079 23.817 153.695 23.667C153.317 23.517 152.96 23.337 152.624 23.127C152.288 22.917 151.994 22.683 151.742 22.425L152.534 21.147C152.6 21.051 152.687 20.973 152.795 20.913C152.903 20.847 153.017 20.814 153.137 20.814C153.299 20.814 153.47 20.874 153.65 20.994C153.83 21.114 154.037 21.246 154.271 21.39C154.505 21.534 154.775 21.666 155.081 21.786C155.393 21.906 155.765 21.966 156.197 21.966C156.827 21.966 157.313 21.822 157.655 21.534C158.003 21.246 158.177 20.817 158.177 20.247C158.177 19.917 158.09 19.65 157.916 19.446C157.748 19.242 157.526 19.071 157.25 18.933C156.974 18.795 156.659 18.678 156.305 18.582C155.951 18.48 155.588 18.369 155.216 18.249C154.844 18.129 154.481 17.985 154.127 17.817C153.773 17.649 153.458 17.427 153.182 17.151C152.906 16.875 152.681 16.533 152.507 16.125C152.339 15.717 152.255 15.21 152.255 14.604C152.255 14.118 152.351 13.647 152.543 13.191C152.735 12.735 153.017 12.33 153.389 11.976C153.761 11.622 154.217 11.337 154.757 11.121C155.303 10.905 155.927 10.797 156.629 10.797C157.415 10.797 158.141 10.92 158.807 11.166C159.479 11.406 160.046 11.742 160.508 12.174L159.842 13.443ZM29.4882 39H27.9661V31.687H29.4882V39ZM37.9937 32.9066H35.8568V39H34.3397V32.9066H32.2028V31.687H37.9937V32.9066ZM46.226 35.6585C45.9941 35.8265 45.8278 36.0113 45.727 36.2129C45.6262 36.4145 45.5758 36.6278 45.5758 36.853C45.5758 37.0277 45.6044 37.1856 45.6615 37.3267C45.7186 37.4645 45.7976 37.5838 45.8984 37.6846C45.9992 37.782 46.1184 37.8576 46.2562 37.9114C46.394 37.9651 46.5418 37.992 46.6997 37.992C46.9618 37.992 47.2037 37.955 47.4255 37.8811C47.6506 37.8038 47.8556 37.6946 48.0404 37.5535L46.226 35.6585ZM51.1601 39H49.7943C49.7237 39 49.6599 38.9966 49.6028 38.9899C49.549 38.9832 49.4986 38.9698 49.4516 38.9496C49.4045 38.9294 49.3592 38.9026 49.3155 38.869C49.2718 38.8354 49.2264 38.7934 49.1794 38.743L48.7661 38.3095C48.4436 38.5548 48.0874 38.7446 47.6976 38.879C47.3112 39.0134 46.8963 39.0806 46.4528 39.0806C46.1672 39.0806 45.8866 39.0319 45.6111 38.9345C45.3356 38.8337 45.0903 38.6926 44.8752 38.5111C44.6602 38.3263 44.4872 38.1046 44.3561 37.8458C44.2251 37.5838 44.1596 37.2898 44.1596 36.9638C44.1596 36.7387 44.1948 36.5254 44.2654 36.3238C44.336 36.1222 44.4351 35.9357 44.5628 35.7643C44.6938 35.593 44.8467 35.4367 45.0214 35.2956C45.1995 35.1545 45.3944 35.0335 45.606 34.9327C45.4347 34.6841 45.3104 34.4422 45.2331 34.207C45.1592 33.9684 45.1222 33.7332 45.1222 33.5014C45.1222 33.246 45.1692 33.0041 45.2633 32.7756C45.3574 32.5438 45.4935 32.3422 45.6716 32.1708C45.8496 31.9961 46.068 31.8583 46.3268 31.7575C46.5888 31.6567 46.8862 31.6063 47.2188 31.6063C47.528 31.6063 47.8035 31.6534 48.0454 31.7474C48.2873 31.8382 48.4923 31.9608 48.6603 32.1154C48.8283 32.2699 48.9593 32.4463 49.0534 32.6446C49.1508 32.8428 49.2096 33.0494 49.2298 33.2645L48.3428 33.4459C48.1781 33.4795 48.0588 33.4123 47.9849 33.2443C47.9177 33.0696 47.8236 32.9268 47.7027 32.8159C47.5851 32.7017 47.4238 32.6446 47.2188 32.6446C47.0912 32.6446 46.9769 32.6681 46.8761 32.7151C46.7753 32.7588 46.6896 32.8193 46.6191 32.8966C46.5519 32.9738 46.4998 33.0646 46.4628 33.1687C46.4292 33.2695 46.4124 33.377 46.4124 33.4913C46.4124 33.5854 46.4208 33.6761 46.4376 33.7634C46.4578 33.8508 46.488 33.9398 46.5284 34.0306C46.572 34.1179 46.6292 34.2086 46.6997 34.3027C46.7703 34.3968 46.856 34.4976 46.9568 34.6051L48.8367 36.5707C48.9408 36.3658 49.0232 36.1507 49.0836 35.9256C49.1441 35.6971 49.1844 35.4636 49.2046 35.225C49.2147 35.1377 49.2432 35.0688 49.2903 35.0184C49.3407 34.968 49.4079 34.9428 49.4919 34.9428H50.3638C50.3638 35.4065 50.2983 35.845 50.1672 36.2582C50.0396 36.6715 49.8598 37.0512 49.628 37.3973L51.1601 39ZM67.7123 31.687L65.4443 39H64.0785L62.5816 34.217C62.5581 34.1498 62.5345 34.0759 62.511 33.9953C62.4875 33.9146 62.4657 33.829 62.4455 33.7382C62.4253 33.829 62.4035 33.9146 62.38 33.9953C62.3565 34.0759 62.3329 34.1498 62.3094 34.217L60.7974 39H59.4265L57.1636 31.687H58.4337C58.5647 31.687 58.6739 31.7172 58.7613 31.7777C58.852 31.8382 58.9108 31.9188 58.9377 32.0196L60.0717 36.1423C60.0985 36.2566 60.1254 36.3809 60.1523 36.5153C60.1825 36.6463 60.2111 36.7858 60.238 36.9336C60.2682 36.7824 60.3001 36.6413 60.3337 36.5102C60.3673 36.3792 60.4043 36.2566 60.4446 36.1423L61.7651 32.0196C61.792 31.9356 61.8491 31.86 61.9365 31.7928C62.0272 31.7222 62.1364 31.687 62.2641 31.687H62.7076C62.8386 31.687 62.9445 31.7189 63.0251 31.7827C63.1091 31.8432 63.1713 31.9222 63.2116 32.0196L64.527 36.1423C64.5673 36.2498 64.6043 36.3674 64.6379 36.4951C64.6715 36.6194 64.7034 36.7522 64.7337 36.8933C64.7605 36.7522 64.7857 36.6194 64.8093 36.4951C64.8361 36.3674 64.863 36.2498 64.8899 36.1423L66.0239 32.0196C66.0474 31.9322 66.1045 31.855 66.1953 31.7878C66.286 31.7206 66.3952 31.687 66.5229 31.687H67.7123ZM71.8571 32.8714V34.7513H74.2964V35.8954H71.8571V37.8156H74.992V39H70.335V31.687H74.992V32.8714H71.8571ZM80.7304 37.8408C80.9723 37.8408 81.1706 37.8122 81.3251 37.7551C81.483 37.6946 81.609 37.6157 81.7031 37.5182C81.7972 37.4208 81.8627 37.3099 81.8997 37.1856C81.9366 37.0579 81.9551 36.9269 81.9551 36.7925C81.9551 36.6446 81.9333 36.5119 81.8896 36.3943C81.8459 36.2767 81.7754 36.1776 81.6779 36.097C81.5805 36.013 81.4528 35.9491 81.2949 35.9054C81.1403 35.8618 80.9488 35.8399 80.7203 35.8399H79.4351V37.8408H80.7304ZM79.4351 32.8361V34.8118H80.428C80.6397 34.8118 80.8278 34.795 80.9925 34.7614C81.1571 34.7244 81.2949 34.6673 81.4058 34.59C81.5166 34.5127 81.6006 34.4119 81.6578 34.2876C81.7182 34.1599 81.7485 34.007 81.7485 33.829C81.7485 33.6475 81.7233 33.493 81.6729 33.3653C81.6258 33.2376 81.5519 33.1351 81.4511 33.0578C81.3503 32.9806 81.2226 32.9251 81.0681 32.8915C80.9135 32.8546 80.7304 32.8361 80.5187 32.8361H79.4351ZM80.5187 31.687C81.0093 31.687 81.4276 31.734 81.7737 31.8281C82.1231 31.9188 82.407 32.0498 82.6254 32.2212C82.8472 32.3892 83.0085 32.5942 83.1093 32.8361C83.2101 33.078 83.2605 33.3485 83.2605 33.6475C83.2605 33.8155 83.2353 33.9768 83.1849 34.1314C83.1378 34.2859 83.0622 34.4321 82.9581 34.5698C82.8573 34.7042 82.7262 34.8269 82.565 34.9378C82.4037 35.0486 82.2122 35.1427 81.9904 35.22C82.4877 35.3376 82.8556 35.5291 83.0942 35.7946C83.3327 36.06 83.452 36.4044 83.452 36.8278C83.452 37.1369 83.3915 37.4242 83.2706 37.6896C83.153 37.955 82.9799 38.1852 82.7514 38.3801C82.523 38.575 82.2407 38.7278 81.9047 38.8387C81.5721 38.9462 81.189 39 80.7556 39H77.9231V31.687H80.5187ZM94.5605 33.0881C94.5135 33.1654 94.4647 33.2225 94.4143 33.2594C94.3673 33.293 94.3051 33.3098 94.2279 33.3098C94.1539 33.3098 94.0733 33.2846 93.9859 33.2342C93.9019 33.1805 93.8028 33.1234 93.6886 33.0629C93.5743 33.0024 93.4433 32.947 93.2955 32.8966C93.1476 32.8428 92.9746 32.8159 92.7763 32.8159C92.4269 32.8159 92.1648 32.8949 91.9901 33.0528C91.8154 33.2074 91.728 33.4106 91.728 33.6626C91.728 33.8239 91.7751 33.9583 91.8691 34.0658C91.9666 34.17 92.0926 34.2607 92.2471 34.338C92.4051 34.4153 92.5831 34.4842 92.7814 34.5446C92.9796 34.6051 93.1829 34.6723 93.3912 34.7462C93.5995 34.8168 93.8028 34.9008 94.0011 34.9982C94.1993 35.0957 94.3757 35.2183 94.5303 35.3662C94.6882 35.514 94.8142 35.6954 94.9083 35.9105C95.0057 36.1222 95.0544 36.3809 95.0544 36.6866C95.0544 37.0193 94.9956 37.3318 94.878 37.6241C94.7638 37.913 94.5975 38.1667 94.3791 38.3851C94.1607 38.6002 93.8902 38.7698 93.5676 38.8942C93.2484 39.0185 92.8855 39.0806 92.479 39.0806C92.2471 39.0806 92.0153 39.0571 91.7835 39.0101C91.555 38.963 91.3332 38.8975 91.1182 38.8135C90.9065 38.7295 90.7066 38.6287 90.5184 38.5111C90.3303 38.3935 90.1656 38.2625 90.0245 38.118L90.468 37.4023C90.505 37.3486 90.5537 37.3049 90.6142 37.2713C90.6747 37.2343 90.7385 37.2158 90.8057 37.2158C90.8964 37.2158 90.9922 37.2494 91.093 37.3166C91.1938 37.3838 91.3097 37.4578 91.4407 37.5384C91.5718 37.619 91.723 37.693 91.8943 37.7602C92.0691 37.8274 92.2774 37.861 92.5193 37.861C92.8721 37.861 93.1443 37.7803 93.3358 37.619C93.5307 37.4578 93.6281 37.2175 93.6281 36.8983C93.6281 36.7135 93.5794 36.564 93.4819 36.4498C93.3879 36.3355 93.2635 36.2398 93.109 36.1625C92.9544 36.0852 92.778 36.0197 92.5798 35.9659C92.3815 35.9088 92.1783 35.8466 91.9699 35.7794C91.7616 35.7122 91.5583 35.6316 91.3601 35.5375C91.1619 35.4434 90.9855 35.3191 90.8309 35.1646C90.6763 35.01 90.5503 34.8185 90.4529 34.59C90.3588 34.3615 90.3118 34.0776 90.3118 33.7382C90.3118 33.4661 90.3655 33.2023 90.4731 32.947C90.5806 32.6916 90.7385 32.4648 90.9468 32.2666C91.1551 32.0683 91.4105 31.9087 91.7129 31.7878C92.0187 31.6668 92.3681 31.6063 92.7612 31.6063C93.2014 31.6063 93.6079 31.6752 93.9809 31.813C94.3572 31.9474 94.6747 32.1355 94.9335 32.3774L94.5605 33.0881ZM105.017 35.341C105.017 35.8752 104.926 36.3708 104.745 36.8278C104.567 37.2847 104.313 37.6795 103.984 38.0122C103.658 38.3448 103.265 38.6069 102.804 38.7984C102.344 38.9866 101.833 39.0806 101.272 39.0806C100.711 39.0806 100.2 38.9866 99.7401 38.7984C99.2798 38.6069 98.885 38.3448 98.5557 38.0122C98.2265 37.6795 97.9711 37.2847 97.7897 36.8278C97.6116 36.3708 97.5225 35.8752 97.5225 35.341C97.5225 34.8067 97.6116 34.3128 97.7897 33.8592C97.9711 33.4022 98.2265 33.0074 98.5557 32.6748C98.885 32.3422 99.2798 32.0818 99.7401 31.8936C100.2 31.7021 100.711 31.6063 101.272 31.6063C101.833 31.6063 102.344 31.7021 102.804 31.8936C103.265 32.0818 103.658 32.3438 103.984 32.6798C104.313 33.0125 104.567 33.4073 104.745 33.8642C104.926 34.3178 105.017 34.8101 105.017 35.341ZM103.47 35.341C103.47 34.9579 103.419 34.6152 103.319 34.3128C103.218 34.007 103.072 33.7483 102.88 33.5366C102.692 33.3216 102.462 33.1586 102.19 33.0478C101.921 32.9335 101.615 32.8764 101.272 32.8764C100.93 32.8764 100.622 32.9335 100.35 33.0478C100.078 33.1586 99.846 33.3216 99.6545 33.5366C99.4663 33.7483 99.3218 34.007 99.221 34.3128C99.1202 34.6152 99.0698 34.9579 99.0698 35.341C99.0698 35.7274 99.1202 36.0734 99.221 36.3792C99.3218 36.6816 99.4663 36.9386 99.6545 37.1503C99.846 37.362 100.078 37.525 100.35 37.6392C100.622 37.7501 100.93 37.8055 101.272 37.8055C101.615 37.8055 101.921 37.7501 102.19 37.6392C102.462 37.525 102.692 37.362 102.88 37.1503C103.072 36.9386 103.218 36.6816 103.319 36.3792C103.419 36.0734 103.47 35.7274 103.47 35.341ZM112.261 37.7702V39H107.921V31.687H109.433V37.7702H112.261ZM117.804 37.7904C118.05 37.7904 118.27 37.7501 118.464 37.6694C118.659 37.5854 118.824 37.4678 118.958 37.3166C119.093 37.1654 119.195 36.9823 119.266 36.7673C119.336 36.5522 119.372 36.3103 119.372 36.0415V31.687H120.884V36.0415C120.884 36.485 120.811 36.8933 120.667 37.2662C120.526 37.6358 120.323 37.955 120.057 38.2238C119.792 38.4926 119.469 38.7026 119.089 38.8538C118.71 39.005 118.281 39.0806 117.804 39.0806C117.327 39.0806 116.897 39.005 116.514 38.8538C116.134 38.7026 115.812 38.4926 115.546 38.2238C115.281 37.955 115.076 37.6358 114.931 37.2662C114.79 36.8933 114.72 36.485 114.72 36.0415V31.687H116.232V36.0415C116.232 36.3103 116.267 36.5522 116.338 36.7673C116.408 36.9823 116.511 37.1654 116.645 37.3166C116.779 37.4678 116.944 37.5854 117.139 37.6694C117.334 37.7501 117.556 37.7904 117.804 37.7904ZM129.297 32.9066H127.16V39H125.643V32.9066H123.506V31.687H129.297V32.9066ZM133.527 39H132.005V31.687H133.527V39ZM143.922 35.341C143.922 35.8752 143.832 36.3708 143.65 36.8278C143.472 37.2847 143.218 37.6795 142.889 38.0122C142.563 38.3448 142.17 38.6069 141.71 38.7984C141.249 38.9866 140.739 39.0806 140.178 39.0806C139.616 39.0806 139.106 38.9866 138.645 38.7984C138.185 38.6069 137.79 38.3448 137.461 38.0122C137.132 37.6795 136.876 37.2847 136.695 36.8278C136.517 36.3708 136.428 35.8752 136.428 35.341C136.428 34.8067 136.517 34.3128 136.695 33.8592C136.876 33.4022 137.132 33.0074 137.461 32.6748C137.79 32.3422 138.185 32.0818 138.645 31.8936C139.106 31.7021 139.616 31.6063 140.178 31.6063C140.739 31.6063 141.249 31.7021 141.71 31.8936C142.17 32.0818 142.563 32.3438 142.889 32.6798C143.218 33.0125 143.472 33.4073 143.65 33.8642C143.832 34.3178 143.922 34.8101 143.922 35.341ZM142.375 35.341C142.375 34.9579 142.325 34.6152 142.224 34.3128C142.123 34.007 141.977 33.7483 141.785 33.5366C141.597 33.3216 141.367 33.1586 141.095 33.0478C140.826 32.9335 140.52 32.8764 140.178 32.8764C139.835 32.8764 139.527 32.9335 139.255 33.0478C138.983 33.1586 138.751 33.3216 138.56 33.5366C138.372 33.7483 138.227 34.007 138.126 34.3128C138.026 34.6152 137.975 34.9579 137.975 35.341C137.975 35.7274 138.026 36.0734 138.126 36.3792C138.227 36.6816 138.372 36.9386 138.56 37.1503C138.751 37.362 138.983 37.525 139.255 37.6392C139.527 37.7501 139.835 37.8055 140.178 37.8055C140.52 37.8055 140.826 37.7501 141.095 37.6392C141.367 37.525 141.597 37.362 141.785 37.1503C141.977 36.9386 142.123 36.6816 142.224 36.3792C142.325 36.0734 142.375 35.7274 142.375 35.341ZM153.091 31.687V39H152.31C152.192 39 152.093 38.9815 152.013 38.9446C151.932 38.9042 151.853 38.837 151.776 38.743L148.132 34.1062C148.142 34.2238 148.149 34.3397 148.152 34.4539C148.159 34.5682 148.162 34.674 148.162 34.7714V39H146.827V31.687H147.623C147.687 31.687 147.74 31.6903 147.784 31.697C147.831 31.7004 147.873 31.7122 147.91 31.7323C147.947 31.7491 147.982 31.7726 148.016 31.8029C148.05 31.8331 148.087 31.8734 148.127 31.9238L151.796 36.5808C151.783 36.4531 151.772 36.3305 151.766 36.2129C151.759 36.0919 151.756 35.9777 151.756 35.8702V31.687H153.091ZM160.384 33.0881C160.337 33.1654 160.288 33.2225 160.238 33.2594C160.191 33.293 160.129 33.3098 160.052 33.3098C159.978 33.3098 159.897 33.2846 159.81 33.2342C159.726 33.1805 159.627 33.1234 159.512 33.0629C159.398 33.0024 159.267 32.947 159.119 32.8966C158.971 32.8428 158.798 32.8159 158.6 32.8159C158.251 32.8159 157.989 32.8949 157.814 33.0528C157.639 33.2074 157.552 33.4106 157.552 33.6626C157.552 33.8239 157.599 33.9583 157.693 34.0658C157.79 34.17 157.916 34.2607 158.071 34.338C158.229 34.4153 158.407 34.4842 158.605 34.5446C158.803 34.6051 159.007 34.6723 159.215 34.7462C159.423 34.8168 159.627 34.9008 159.825 34.9982C160.023 35.0957 160.199 35.2183 160.354 35.3662C160.512 35.514 160.638 35.6954 160.732 35.9105C160.829 36.1222 160.878 36.3809 160.878 36.6866C160.878 37.0193 160.819 37.3318 160.702 37.6241C160.588 37.913 160.421 38.1667 160.203 38.3851C159.984 38.6002 159.714 38.7698 159.391 38.8942C159.072 39.0185 158.709 39.0806 158.303 39.0806C158.071 39.0806 157.839 39.0571 157.607 39.0101C157.379 38.963 157.157 38.8975 156.942 38.8135C156.73 38.7295 156.53 38.6287 156.342 38.5111C156.154 38.3935 155.989 38.2625 155.848 38.118L156.292 37.4023C156.329 37.3486 156.377 37.3049 156.438 37.2713C156.498 37.2343 156.562 37.2158 156.629 37.2158C156.72 37.2158 156.816 37.2494 156.917 37.3166C157.018 37.3838 157.133 37.4578 157.264 37.5384C157.396 37.619 157.547 37.693 157.718 37.7602C157.893 37.8274 158.101 37.861 158.343 37.861C158.696 37.861 158.968 37.7803 159.16 37.619C159.354 37.4578 159.452 37.2175 159.452 36.8983C159.452 36.7135 159.403 36.564 159.306 36.4498C159.212 36.3355 159.087 36.2398 158.933 36.1625C158.778 36.0852 158.602 36.0197 158.404 35.9659C158.205 35.9088 158.002 35.8466 157.794 35.7794C157.585 35.7122 157.382 35.6316 157.184 35.5375C156.986 35.4434 156.809 35.3191 156.655 35.1646C156.5 35.01 156.374 34.8185 156.277 34.59C156.183 34.3615 156.136 34.0776 156.136 33.7382C156.136 33.4661 156.189 33.2023 156.297 32.947C156.404 32.6916 156.562 32.4648 156.771 32.2666C156.979 32.0683 157.234 31.9087 157.537 31.7878C157.842 31.6668 158.192 31.6063 158.585 31.6063C159.025 31.6063 159.432 31.6752 159.805 31.813C160.181 31.9474 160.498 32.1355 160.757 32.3774L160.384 33.0881Z" fill="white"/>
<line x1="18.5" y1="7" x2="18.5" y2="43.5" stroke="white" stroke-width="3"/>
</svg>
