<svg width="120" height="120" viewBox="0 0 120 120" fill="none"
    xmlns="http://www.w3.org/2000/svg">
    <path fill-rule="evenodd" clip-rule="evenodd" d="M60 119.5C92.8609 119.5 119.5 92.8609 119.5 60C119.5 27.1391 92.8609 0.5 60 0.5C27.1391 0.5 0.5 27.1391 0.5 60C0.5 92.8609 27.1391 119.5 60 119.5ZM64.0333 77.9333C54.6 73.1333 46.8667 65.4 42.0667 55.9667L49.4 48.6333C50.3333 47.7 50.6 46.4 50.2333 45.2333C49 41.5 48.3333 37.5 48.3333 33.3333C48.3333 32.4493 47.9821 31.6014 47.357 30.9763C46.7319 30.3512 45.8841 30 45 30H33.3333C32.4493 30 31.6014 30.3512 30.9763 30.9763C30.3512 31.6014 30 32.4493 30 33.3333C30 48.3623 35.9702 62.7757 46.5973 73.4027C57.2243 84.0298 71.6377 90 86.6667 90C87.5507 90 88.3986 89.6488 89.0237 89.0237C89.6488 88.3986 90 87.5507 90 86.6667V75C90 74.1159 89.6488 73.2681 89.0237 72.643C88.3986 72.0179 87.5507 71.6667 86.6667 71.6667C82.5 71.6667 78.5 71 74.7667 69.7667C73.6 69.4 72.3 69.6667 71.3667 70.6L64.0333 77.9333Z" fill="white"/>
</svg>
