<svg width="120" height="64" viewBox="0 0 120 64" fill="none"
    xmlns="http://www.w3.org/2000/svg">
    <path d="M32.561 35.7945H28.3747L30.9446 22.5719H35.6601C38.2747 22.5719 40.0172 23.0546 40.8886 24.0199C41.7589 24.9851 41.9663 26.6421 41.5109 28.99C41.0349 31.4356 40.1189 33.1807 38.7606 34.2264C37.4026 35.2718 35.3358 35.7945 32.561 35.7945Z" fill="#6181B6"/>
    <path d="M82.0921 35.7945H86.2782C89.053 35.7945 91.1198 35.2718 92.4778 34.2264C93.8363 33.1807 94.7521 31.4356 95.2281 28.99C95.6838 26.6421 95.4763 24.9851 94.6058 24.0199C93.7344 23.0546 91.9919 22.5719 89.3773 22.5719H84.6618L82.0921 35.7945Z" fill="#6181B6"/>
    <path fill-rule="evenodd" clip-rule="evenodd" d="M59.9306 63.0516C26.8324 63.0516 0 48.9368 0 31.5258C0 14.115 26.8324 0 59.9306 0C93.0288 0 119.861 14.115 119.861 31.5258C119.861 48.9368 93.0288 63.0516 59.9306 63.0516ZM59.5253 17.5864L61.1578 9.18683H54.3297L48.1893 40.78H55.0173L58.5345 22.6803H63.9917C65.7386 22.6803 66.8807 22.9699 67.4177 23.5482C67.9544 24.1266 68.068 25.2112 67.7589 26.8014L65.0426 40.78H71.979L74.8359 26.0783C75.4167 23.0876 74.9814 20.9241 73.5284 19.5889C72.0755 18.2545 69.4355 17.5864 65.6081 17.5864H59.5253ZM46.9775 20.721C45.1519 18.6312 42.2475 17.5864 38.2662 17.5864H25.0317L18.8913 49.1796H25.7735L27.4059 40.78H33.301C35.9022 40.78 38.0419 40.5075 39.7218 39.9602C41.4017 39.4144 42.9283 38.4979 44.3026 37.2119C45.4558 36.1517 46.389 34.9825 47.1036 33.7038C47.8174 32.426 48.3244 31.0155 48.6242 29.4728C49.3526 25.7278 48.8028 22.8108 46.9775 20.721ZM91.9834 17.5864C95.9647 17.5864 98.8691 18.6312 100.695 20.721C102.52 22.8108 103.07 25.7278 102.341 29.4728C102.042 31.0155 101.535 32.426 100.821 33.7038C100.106 34.9825 99.173 36.1517 98.0198 37.2119C96.6456 38.4979 95.1189 39.4144 93.439 39.9602C91.7591 40.5075 89.6194 40.78 87.0182 40.78H81.1232L79.4909 49.1796H72.6087L78.7492 17.5864H91.9834Z" fill="#6181B6"/>
</svg>
