<svg width="120" height="120" viewBox="0 0 120 120" fill="none"
    xmlns="http://www.w3.org/2000/svg">
    <path d="M59.5674 0C29.104 2.1735e-06 31.0063 13.2108 31.0063 13.2108L31.0403 26.897H60.1108V31.0063H19.4936C19.4936 31.0063 0 28.7956 0 59.5335C-2.1735e-06 90.2714 17.0144 89.1813 17.0144 89.1813H27.1687V74.9177C27.1687 74.9177 26.6214 57.9033 43.9114 57.9033C61.2015 57.9033 72.7443 57.9033 72.7443 57.9033C72.7443 57.9033 88.9436 58.1652 88.9436 42.2474C88.9436 26.3295 88.9436 15.9277 88.9436 15.9277C88.9436 15.9277 91.4031 0 59.5674 0ZM43.5379 9.2034C46.4302 9.2034 48.7679 11.5411 48.7679 14.4334C48.7679 17.3257 46.4302 19.6634 43.5379 19.6634C40.6456 19.6634 38.3079 17.3257 38.3079 14.4334C38.3079 11.5411 40.6456 9.2034 43.5379 9.2034Z" fill="url(#paint0_linear)"/>
    <path d="M60.4326 119.375C90.896 119.375 88.9937 106.164 88.9937 106.164L88.9597 92.4781H59.8892V88.3688H100.506C100.506 88.3688 120 90.5796 120 59.8416C120 29.1037 102.986 30.1938 102.986 30.1938H92.8313V44.4574C92.8313 44.4574 93.3786 61.4718 76.0885 61.4718C58.7985 61.4718 47.2557 61.4718 47.2557 61.4718C47.2557 61.4718 31.0564 61.2099 31.0564 77.1277C31.0564 93.0456 31.0564 103.447 31.0564 103.447C31.0564 103.447 28.5969 119.375 60.4326 119.375ZM76.4621 110.172C73.5698 110.172 71.2321 107.834 71.2321 104.942C71.2321 102.049 73.5698 99.7117 76.4621 99.7117C79.3544 99.7117 81.6921 102.049 81.6921 104.942C81.6921 107.834 79.3544 110.172 76.4621 110.172Z" fill="url(#paint1_linear)"/>
    <defs>
        <linearGradient id="paint0_linear" x1="11.5322" y1="10.4344" x2="70.8687" y2="69.9694" gradientUnits="userSpaceOnUse">
            <stop stop-color="#387EB8"/>
            <stop offset="1" stop-color="#366994"/>
        </linearGradient>
        <linearGradient id="paint1_linear" x1="48.0335" y1="48.3079" x2="111.761" y2="109.362" gradientUnits="userSpaceOnUse">
            <stop stop-color="#FFE052"/>
            <stop offset="1" stop-color="#FFC331"/>
        </linearGradient>
    </defs>
</svg>
