<svg width="120" height="120" viewBox="0 0 120 120" fill="none"
    xmlns="http://www.w3.org/2000/svg">
    <path fill-rule="evenodd" clip-rule="evenodd" d="M119.001 59.5C119.001 92.3609 92.3619 119 59.501 119C26.6401 119 0.000999451 92.3609 0.000999451 59.5C0.000999451 26.6391 26.6401 0 59.501 0C92.3619 0 119.001 26.6391 119.001 59.5ZM87.7778 44.9978C90.6542 44.6563 93.3971 43.8916 95.9468 42.7609C94.0409 45.613 91.63 48.1172 88.849 50.1218C88.8766 50.7306 88.8904 51.3447 88.8904 51.9609C88.8904 70.7566 74.5844 92.4277 48.4247 92.4277C40.3935 92.4277 32.916 90.0741 26.6253 86.0373C27.7358 86.1699 28.8707 86.2367 30.0162 86.2367C36.6812 86.2367 42.8128 83.9638 47.6812 80.1486C41.4563 80.033 36.205 75.9209 34.3956 70.2719C35.2632 70.4374 36.153 70.5254 37.0716 70.5254C38.3666 70.5254 39.6256 70.3525 40.8178 70.0258C34.3128 68.7202 29.4084 62.9726 29.4084 56.0815C29.4084 56.0222 29.4084 55.9617 29.4095 55.9012C31.3261 56.9693 33.5205 57.6089 35.8508 57.6821C32.0367 55.1323 29.524 50.7773 29.524 45.8442C29.524 43.2382 30.2262 40.7934 31.4502 38.6933C38.4653 47.3005 48.9455 52.9622 60.7653 53.5551C60.5213 52.5135 60.3951 51.4285 60.3951 50.3138C60.3951 42.4608 66.7643 36.0916 74.6173 36.0916C78.7103 36.0916 82.4067 37.8183 85.001 40.5813C88.2391 39.9438 91.2843 38.7612 94.0324 37.131C92.9686 40.454 90.7147 43.2382 87.7778 44.9978Z" fill="white"/>
</svg>
