<svg width="120" height="120" viewBox="0 0 120 120" fill="none"
    xmlns="http://www.w3.org/2000/svg">
    <path d="M59.5 0C26.6386 0 0 26.6386 0 59.5C0 92.3613 26.6386 119 59.5 119C92.3614 119 119 92.3613 119 59.5C119 26.6386 92.3614 0 59.5 0ZM47.4946 68.7969L46.5464 70.712C46.1063 71.5673 45.0836 71.8958 44.3957 71.8958H35.6318C34.0823 71.8958 34.1505 70.712 34.5286 69.9373L35.0988 68.7969L42.0715 54.8516L38.1978 47.1042L37.6276 45.9575C37.2495 45.1828 37.1813 44.0052 38.7308 44.0052H47.4946C48.1826 44.0052 49.2053 44.3337 49.6453 45.1828L50.5936 47.1042L54.4673 54.8516L47.4946 68.7969ZM84.4776 33.5617L83.9074 34.7083L68.4126 65.6979L77.7095 84.2917L78.2797 85.4321C78.664 86.2068 78.7259 87.3906 77.1765 87.3906H68.4126C67.7184 87.3906 66.7082 87.0621 66.2743 86.2068L65.3136 84.2917L56.0168 65.6979L71.5116 34.7083L72.4722 32.787C72.8999 31.9317 73.9102 31.6094 74.6105 31.6094H83.3744C84.9239 31.6094 84.8557 32.787 84.4776 33.5617Z" fill="white"/>
</svg>
