<svg width="256" height="256" viewBox="0 0 256 256" fill="none" xmlns="http://www.w3.org/2000/svg">
<g clip-path="url(#clip0)">
<rect width="256" height="256" rx="8" fill="#112222"/>
<path d="M97.075 225.75C105.475 225.75 112.358 224.758 117.725 222.775C123.208 220.675 127.583 217.933 130.85 214.55C134.117 211.167 136.392 207.317 137.675 203C138.958 198.567 139.6 194.017 139.6 189.35C139.6 184.217 138.842 179.608 137.325 175.525C135.808 171.442 133.358 168 129.975 165.2C126.592 162.283 122.158 160.067 116.675 158.55C111.308 157.033 104.658 156.275 96.725 156.275H52.1V225.75H97.075ZM52.1 51.975V120.575H86.575C93.925 120.575 100.458 119.992 106.175 118.825C111.892 117.542 116.675 115.558 120.525 112.875C124.375 110.192 127.292 106.692 129.275 102.375C131.375 97.9417 132.425 92.6333 132.425 86.45C132.425 80.15 131.55 74.7833 129.8 70.35C128.167 65.9167 125.6 62.3583 122.1 59.675C118.6 56.9917 114.167 55.0667 108.8 53.9C103.433 52.6167 97.075 51.975 89.725 51.975H52.1ZM89.725 12.075C106.758 12.075 121.283 13.7083 133.3 16.975C145.433 20.125 155.292 24.675 162.875 30.625C170.575 36.4583 176.175 43.575 179.675 51.975C183.175 60.375 184.925 69.7667 184.925 80.15C184.925 85.9833 184.05 91.5833 182.3 96.95C180.667 102.317 178.042 107.392 174.425 112.175C170.925 116.842 166.375 121.1 160.775 124.95C155.175 128.8 148.525 132.067 140.825 134.75C158.092 138.833 170.867 145.483 179.15 154.7C187.433 163.917 191.575 175.875 191.575 190.575C191.575 201.308 189.475 211.283 185.275 220.5C181.192 229.717 175.183 237.708 167.25 244.475C159.317 251.242 149.517 256.55 137.85 260.4C126.3 264.133 113 266 97.95 266H-0.399998V12.075H89.725Z" fill="white"/>
</g>
<defs>
<clipPath id="clip0">
<rect width="256" height="256" rx="8" fill="white"/>
</clipPath>
</defs>
</svg>
