<svg width="94" height="120" viewBox="0 0 94 120" fill="none"
    xmlns="http://www.w3.org/2000/svg">
    <path d="M42.404 0.750214H61.8914V90.951C51.8947 92.849 44.5551 93.6082 36.5836 93.6082C12.7943 93.6082 0.393433 82.8539 0.393433 62.2261C0.393433 42.36 13.5542 29.4531 33.9265 29.4531C37.0898 29.4531 39.4938 29.707 42.4049 30.4645V0.750214H42.404ZM42.404 46.1543C40.1265 45.3959 38.2285 45.1429 35.8245 45.1429C25.9543 45.1429 20.2596 51.2172 20.2596 61.8449C20.2596 72.2229 25.7012 77.9167 35.6979 77.9167C37.8481 77.9167 39.6204 77.7902 42.404 77.4123V46.1543Z" fill="white"/>
    <path d="M92.8922 30.8433V76.0196C92.8922 91.5829 91.7534 99.0482 88.3371 105.503C85.173 111.704 80.9967 115.624 72.3926 119.927L54.2971 111.322C62.902 107.273 67.0775 103.733 69.7347 98.289C72.5192 92.7225 73.4057 86.2669 73.4057 69.311V30.8433H92.8922ZM73.4057 0.853882H92.8922V20.8482H73.4057V0.853882V0.853882Z" fill="white"/>
</svg>
