<svg width="90" height="120" viewBox="0 0 90 120" fill="none"
    xmlns="http://www.w3.org/2000/svg">
    <path d="M50.3937 57.3228C56.063 63.937 48.8189 69.9212 48.8189 69.9212C48.8189 69.9212 63.622 62.3622 56.6929 52.9134C49.7638 43.4646 45.6693 39.685 71.811 24.5669C71.811 24.252 30.5512 34.6457 50.3937 57.3228ZM56.6929 0C56.6929 0 69.2913 12.5984 44.7244 31.4961C25.1968 46.9291 40.315 55.748 44.7244 65.8268C33.3858 55.4331 24.8819 46.6142 30.5512 38.1102C39.0551 25.5118 61.7323 19.5276 56.6929 0Z" fill="#F8981D"/>
    <path d="M28.8041 92.5984C28.8041 92.5984 24.0797 95.1181 31.9537 96.063C39.8278 97.0078 46.4419 97.0078 56.8356 95.1181C58.9471 96.3535 61.1598 97.4072 63.4498 98.2677C40.1427 108.346 10.2215 97.9527 28.8041 92.5984ZM25.9695 79.37C25.9695 79.37 20.9301 83.1496 28.8041 84.0944C36.6782 85.0393 47.0719 85.3543 60.9301 82.5196C62.3685 83.9138 64.086 84.9873 65.9695 85.6693C37.3081 93.8582 5.49706 86.2992 25.9695 79.37ZM81.0876 102.362C81.0876 102.362 84.5522 105.197 77.3081 107.402C63.7648 111.496 20.9301 112.756 8.96162 107.717C4.55218 105.827 13.686 102.362 19.3553 102.362C14.001 99.2126 -11.5108 108.976 6.12698 111.811C54.316 119.37 93.686 108.031 81.0876 102.362ZM31.0089 65.8267C31.0089 65.8267 9.27658 70.8661 23.1349 72.7559C29.1191 73.7007 41.0876 73.3858 52.1112 72.4409C63.1349 71.496 70.064 69.9212 70.064 69.9212C68.2074 70.7237 66.417 71.6715 64.7097 72.7559C42.6624 78.4252 -0.172233 75.9055 12.1112 69.9212C24.3947 63.937 31.0089 65.8267 31.0089 65.8267ZM70.064 87.559C93.0561 75.9055 82.3475 62.3622 72.2687 66.7716C83.6073 57.3228 104.08 78.1102 69.4341 88.1889V87.559H70.064ZM33.2136 119.37C54.9459 120.63 88.0167 118.74 88.6467 108.346C88.6467 108.346 87.0719 112.126 70.6939 115.276C54.316 118.425 29.4341 118.425 15.8908 116.22C16.2057 116.22 19.0404 118.425 33.2136 119.37Z" fill="#5382A1"/>
</svg>
