<svg width="120" height="115" viewBox="0 0 120 115" fill="none"
    xmlns="http://www.w3.org/2000/svg">
    <path d="M7.55178 27.1693C-2.97664 42.3019 -1.66598 61.9895 6.37682 78.0682C6.56804 78.4537 6.76847 78.833 6.96584 79.2123C7.09231 79.4529 7.21101 79.6996 7.34207 79.937C7.41612 80.0788 7.49934 80.2177 7.57645 80.3534C7.71366 80.6093 7.85399 80.8529 7.99585 81.1027C8.24565 81.5437 8.50162 81.9816 8.76373 82.4196C8.90868 82.6601 9.05209 82.9006 9.20166 83.1412C9.49154 83.6099 9.78914 84.0725 10.0929 84.5351C10.2194 84.7325 10.3427 84.9298 10.4722 85.121C10.8916 85.747 11.3203 86.37 11.7628 86.9837C11.7738 86.9995 11.7858 87.0176 11.7997 87.0329C11.8692 87.1316 11.9462 87.2272 12.0171 87.3259C12.3995 87.8532 12.7943 88.3744 13.1936 88.8894C13.3402 89.0775 13.4881 89.2657 13.6362 89.4538C13.9924 89.901 14.3547 90.345 14.7232 90.7891C14.8605 90.9556 14.9992 91.1221 15.138 91.2856C15.633 91.8684 16.1372 92.4482 16.6522 93.0156C16.6616 93.0244 16.6738 93.0372 16.683 93.0464C16.7046 93.071 16.7231 93.0864 16.7415 93.1111C17.2442 93.66 17.7592 94.1966 18.2804 94.7332C18.4423 94.8998 18.6073 95.0663 18.7738 95.2297C19.1778 95.6368 19.588 96.0377 20.0028 96.4355C20.1708 96.5959 20.3374 96.7593 20.5054 96.9135C21.059 97.4347 21.6187 97.9466 22.1892 98.4463C22.1987 98.4551 22.2061 98.462 22.2154 98.4679C22.3126 98.5543 22.4128 98.6344 22.5084 98.7176C23.0111 99.1525 23.523 99.5842 24.038 100.01C24.2477 100.179 24.4605 100.346 24.6717 100.516C25.0927 100.852 25.5182 101.185 25.9469 101.512C26.1735 101.684 26.4002 101.857 26.6284 102.03C27.1018 102.378 27.5783 102.721 28.0593 103.057C28.2351 103.183 28.4047 103.307 28.5805 103.427C28.6298 103.461 28.6746 103.495 28.7239 103.529C29.1803 103.843 29.6475 104.145 30.1132 104.448C30.3137 104.58 30.5126 104.719 30.7146 104.848C31.43 105.302 32.1563 105.749 32.8902 106.181C33.0891 106.295 33.2911 106.406 33.4916 106.52C34.0313 106.831 34.574 107.137 35.1245 107.436C35.4221 107.596 35.7274 107.747 36.028 107.902C36.4166 108.105 36.8021 108.312 37.1968 108.509C37.2862 108.552 37.3788 108.595 37.4667 108.639C37.6255 108.716 37.7859 108.79 37.9447 108.87C38.5568 109.163 39.1736 109.45 39.7966 109.727C39.9292 109.786 40.0572 109.844 40.1882 109.903C40.9022 110.214 41.6222 110.514 42.3485 110.8C42.5227 110.871 42.6985 110.939 42.8743 111.007C43.5466 111.266 44.2282 111.522 44.9128 111.763C44.9992 111.793 45.0824 111.821 45.1687 111.852C45.9197 112.114 46.6784 112.358 47.4416 112.595C47.6235 112.647 47.807 112.706 47.9905 112.758C48.7676 112.993 49.5356 113.274 50.3373 113.422C101.255 122.707 116.046 82.8228 116.046 82.8228C103.624 99.0064 81.5739 103.275 60.6826 98.5226C59.8915 98.3437 59.1237 98.097 58.3511 97.8688C58.1553 97.8102 57.9626 97.7517 57.7698 97.693C57.0158 97.4617 56.2679 97.2181 55.5248 96.9621C55.423 96.9253 55.3197 96.8881 55.2164 96.8511C54.5503 96.6167 53.8919 96.37 53.2365 96.1172C53.0515 96.0431 52.8665 95.9722 52.6814 95.8982C51.9629 95.6145 51.249 95.3184 50.5443 95.01C50.3994 94.9483 50.2606 94.8836 50.1172 94.8219C49.5112 94.5475 48.9114 94.2699 48.3147 93.9831C48.142 93.8999 47.9693 93.8197 47.7935 93.7333C47.3248 93.5047 46.8613 93.2609 46.399 93.0234C46.0895 92.8605 45.775 92.7064 45.468 92.5358C44.9034 92.2339 44.3488 91.9194 43.7968 91.5986C43.6099 91.4937 43.4204 91.3927 43.2322 91.284C42.4983 90.852 41.7733 90.4049 41.0558 89.9514C40.8575 89.8251 40.6642 89.6899 40.4684 89.5598C39.948 89.2238 39.4301 88.8815 38.9198 88.5304C38.7505 88.4154 38.5876 88.2929 38.4208 88.1792C37.9282 87.8306 37.4406 87.4782 36.9568 87.1207C36.7371 86.9577 36.5211 86.7935 36.3076 86.6306C35.8642 86.2908 35.4234 85.9485 34.9863 85.5973C34.789 85.44 34.5916 85.2828 34.3973 85.1255C33.8422 84.6691 33.2933 84.2096 32.752 83.7378C32.695 83.6885 32.6333 83.6391 32.5716 83.5867C31.9857 83.0717 31.4106 82.5443 30.8416 82.0139C30.6766 81.8566 30.5162 81.7024 30.3543 81.5451C29.9334 81.1442 29.5186 80.7403 29.1115 80.327C28.9481 80.1636 28.7846 80.0032 28.6243 79.8398C28.1062 79.3093 27.5974 78.7727 27.0993 78.2269C27.0746 78.1992 27.0484 78.1745 27.0238 78.1467C26.4964 77.57 25.9814 76.981 25.4772 76.3859C25.34 76.2225 25.2074 76.0652 25.0717 75.9048C24.6954 75.4515 24.3223 74.992 23.9584 74.5294C23.822 74.3626 23.6855 74.1921 23.5504 74.0203C23.1121 73.4519 22.6838 72.8847 22.2645 72.3087C10.6658 56.4877 6.499 34.6666 15.7693 16.7462" fill="#0868AC"/>
    <path d="M40.2341 14.4202C32.6201 25.3772 33.0332 40.0446 38.9728 51.6328C39.9689 53.5757 41.0883 55.46 42.3404 57.2548C43.4814 58.8892 44.7458 60.8352 46.26 62.1489C46.8089 62.7533 47.3825 63.3423 47.9684 63.9221C48.1163 64.0732 48.2675 64.2182 48.4186 64.3662C48.9876 64.9182 49.5658 65.461 50.1641 65.9883C50.1887 66.0068 50.2103 66.0314 50.235 66.0501C50.2413 66.0564 50.2476 66.0589 50.2519 66.0659C50.9134 66.6457 51.5964 67.2039 52.2903 67.7527C52.4446 67.8698 52.5972 67.9933 52.7529 68.1135C53.4483 68.6471 54.1577 69.1713 54.8854 69.6709C54.907 69.6867 54.9255 69.7017 54.9471 69.7171C55.2679 69.9392 55.5948 70.1458 55.9201 70.3586C56.0758 70.4604 56.2239 70.5683 56.3811 70.6639C56.9008 70.9969 57.4266 71.3207 57.9616 71.6322C58.0372 71.6784 58.1111 71.7186 58.1852 71.7617C58.6462 72.0269 59.1134 72.289 59.5822 72.5419C59.7457 72.6344 59.9122 72.7146 60.0787 72.8009C60.4026 72.9705 60.7264 73.1433 61.0563 73.3067C61.1056 73.3313 61.1566 73.3529 61.2043 73.3747C61.875 73.7046 62.5519 74.0223 63.2428 74.3245C63.3907 74.3893 63.5434 74.4478 63.693 74.5095C64.245 74.7439 64.8032 74.9721 65.3644 75.188C65.6019 75.2774 65.8424 75.3638 66.0799 75.4501C66.5887 75.6382 67.0991 75.8109 67.6141 75.9836C67.8469 76.0576 68.0751 76.1347 68.308 76.2057C69.0404 76.4339 69.7635 76.7207 70.5268 76.8471C109.84 83.3602 118.916 53.0922 118.916 53.0922C110.734 64.8756 94.8906 70.4972 77.9832 66.109C77.2323 65.9116 76.4922 65.6958 75.7567 65.4644C75.5316 65.3966 75.311 65.3227 75.0875 65.2486C74.5648 65.079 74.0451 64.9001 73.5301 64.712C73.2942 64.6256 73.0583 64.5393 72.827 64.4499C72.2626 64.234 71.7045 64.0089 71.1509 63.7745C70.9998 63.7097 70.8471 63.6512 70.6991 63.5833C70.0052 63.2811 69.3221 62.9634 68.6484 62.6304C68.3014 62.4608 67.9607 62.2819 67.6199 62.1061C67.4225 62.0044 67.2236 61.9026 67.0262 61.8008C66.5883 61.5633 66.1535 61.3166 65.7248 61.0668C65.6231 61.0082 65.5166 60.9527 65.4133 60.8911C64.8814 60.5796 64.3571 60.2589 63.8374 59.9289C63.6771 59.8271 63.5229 59.7161 63.3625 59.6113C63.0202 59.3892 62.6779 59.1641 62.3417 58.9359C61.617 58.4363 60.9123 57.912 60.217 57.3816C60.0566 57.2551 59.8963 57.1318 59.739 57.0053C52.3381 51.162 46.472 43.1775 43.683 34.1232C40.76 24.7329 41.3904 14.1919 46.4544 5.63776" fill="#0868AC"/>
    <path d="M67.7217 4.89474C63.233 11.5004 62.7921 19.704 65.9068 27C69.1911 34.7437 75.9217 40.819 83.7767 43.699C84.1005 43.8193 84.4243 43.9272 84.7527 44.0382C84.8961 44.0814 85.038 44.1308 85.1829 44.1738C85.6455 44.3187 86.105 44.4884 86.583 44.5778C108.29 48.7719 114.178 33.4388 115.746 31.182C110.588 38.608 101.92 40.3904 91.2857 37.8093C90.4457 37.6047 89.5224 37.3015 88.7127 37.0148C87.6744 36.6447 86.6512 36.2228 85.6571 35.7453C83.7687 34.8383 81.9687 33.7369 80.3001 32.4762C70.7834 25.256 64.8718 11.4813 71.0815 0.263184" fill="#0868AC"/>
</svg>
