<svg width="120" height="120" viewBox="0 0 120 120" fill="none"
    xmlns="http://www.w3.org/2000/svg">
    <path d="M59.9985 0C26.9162 0 0 26.9151 0 59.9985C0 93.0859 26.9162 120 59.9985 120C93.0799 120 120 93.0859 120 59.9985C119.999 26.9151 93.0799 0 59.9985 0Z" fill="#00749A"/>
    <path fill-rule="evenodd" clip-rule="evenodd" d="M59.9985 117.25C28.4332 117.25 2.75104 91.5668 2.75104 59.9985C2.75104 28.4322 28.4322 2.75116 59.9985 2.75116C91.5628 2.75116 117.243 28.4322 117.243 59.9985C117.243 91.5668 91.5628 117.25 59.9985 117.25ZM94.3804 57.1785C94.3804 50.842 92.1043 46.4537 90.1522 43.038C89.9523 42.7133 89.7534 42.3924 89.5566 42.0747L89.5532 42.0693C87.1912 38.258 85.117 34.9112 85.117 31.0146C85.117 26.3015 88.6917 21.9141 93.7268 21.9141C93.8734 21.9141 94.0152 21.9259 94.1568 21.9377C94.2347 21.9442 94.3126 21.9506 94.3912 21.9551C85.2692 13.598 73.1161 8.49561 59.7678 8.49561C41.8556 8.49561 26.0965 17.6859 16.9287 31.6059C18.1317 31.642 19.2653 31.6673 20.2283 31.6673C25.5912 31.6673 33.8926 31.0166 33.8926 31.0166C36.6565 30.8537 36.9824 34.9132 34.2214 35.24C34.2214 35.24 31.4439 35.5668 28.3531 35.7288L47.0244 91.2654L58.2448 57.6137L50.2565 35.7268C47.4956 35.5649 44.88 35.238 44.88 35.238C42.117 35.0761 42.4409 30.8517 45.2039 31.0146C45.2039 31.0146 53.6712 31.6654 58.7092 31.6654C64.0712 31.6654 72.3736 31.0146 72.3736 31.0146C75.1395 30.8517 75.4643 34.9112 72.7024 35.238C72.7024 35.238 69.919 35.5649 66.8341 35.7268L85.3629 90.8429L90.477 73.7532C90.6041 73.3466 90.7295 72.9465 90.8529 72.5528L90.8811 72.4626C92.8954 66.0354 94.3804 61.2969 94.3804 57.1785ZM8.49558 59.7659C8.49558 80.0605 20.2897 97.599 37.3922 105.91L12.9346 38.8995C10.0897 45.2761 8.49558 52.3327 8.49558 59.7659ZM60.6673 64.2507L45.2839 108.952C49.8771 110.302 54.7346 111.041 59.7678 111.041C65.7385 111.041 71.4644 110.009 76.7941 108.135C76.6566 107.915 76.5317 107.682 76.4293 107.428L60.6673 64.2507ZM104.757 35.1668C104.978 36.8 105.102 38.5532 105.102 40.439C105.102 45.6419 104.131 51.4907 101.204 58.8039L85.5424 104.085C100.785 95.1961 111.038 78.6819 111.038 59.7668C111.039 50.8527 108.762 42.4702 104.757 35.1668Z" fill="white"/>
</svg>
