<svg width="107" height="120" viewBox="0 0 107 120" fill="none"
    xmlns="http://www.w3.org/2000/svg">
    <path d="M9.73731 107.956L0 0H107L97.253 107.94L53.4351 119.947L9.73731 107.956V107.956Z" fill="#1572B6"/>
    <path d="M53.501 110.589L88.7637 100.925L97.0597 9.06229H53.501V110.589Z" fill="#33A9DC"/>
    <path d="M21.3229 34.5121H72.3732L71.154 48.0149H53.501L53.501 48.0168H37.6371L37.9554 51.5549L38.8312 61.2032H53.501L53.501 61.2013H69.969L68.4128 78.3022L53.5338 82.2721V82.2742L53.5212 82.2779L38.6644 78.3127L37.7143 67.7959H24.3245L26.1928 88.5006L53.5193 95.9971L53.5801 95.98V95.9787L80.8824 88.4997L86.9533 21.3257H20.1288L21.3229 34.5121Z" fill="white"/>
</svg>
