<svg width="120" height="120" viewBox="0 0 120 120" fill="none" xmlns="http://www.w3.org/2000/svg">
<g clip-path="url(#clip0)">
<path fill-rule="evenodd" clip-rule="evenodd" d="M59.5 0C92.3619 0 119 27.3101 119 61.0049C119 87.9525 101.971 110.813 78.3436 118.887C75.327 119.488 74.256 117.583 74.256 115.958C74.256 113.947 74.3274 107.378 74.3274 99.2151C74.3274 93.5269 72.4234 89.8144 70.2874 87.9223C83.538 86.411 97.461 81.2519 97.461 57.8208C97.461 51.1568 95.1524 45.7187 91.3325 41.4466C91.9513 39.9056 93.9921 33.7005 90.7494 25.2991C90.7494 25.2991 85.7633 23.6645 74.4047 31.5542C69.5517 30.2015 64.538 29.5097 59.5 29.5001C54.4658 29.5092 49.4561 30.201 44.6072 31.5542C33.2367 23.6645 28.2387 25.2991 28.2387 25.2991C25.0079 33.7005 27.0487 39.9056 27.6616 41.4466C23.8595 45.7187 21.5331 51.1568 21.5331 57.8208C21.5331 81.1924 35.4263 86.4306 48.6413 87.9717C46.9396 89.4949 45.3985 92.1819 44.863 96.1268C41.4715 97.6857 32.8559 100.384 27.5485 91.06C27.5485 91.06 24.401 85.1985 18.4272 84.7701C18.4272 84.7701 12.6259 84.693 18.0225 88.4772C18.0225 88.4772 21.9198 90.3515 24.627 97.4022C24.627 97.4022 28.1197 108.29 44.6726 104.601C44.7024 109.701 44.7559 114.506 44.7559 115.958C44.7559 117.571 43.6611 119.458 40.692 118.893C17.0467 110.83 0 87.9584 0 61.0049C0 27.3101 26.6441 0 59.5 0" fill="white"/>
</g>
<defs>
<clipPath id="clip0">
<rect width="120" height="120" fill="white"/>
</clipPath>
</defs>
</svg>
