<svg width="120" height="90" viewBox="0 0 120 90" fill="none" xmlns="http://www.w3.org/2000/svg">
<g clip-path="url(#clip0)">
<path d="M102.987 51.6011C98.8042 51.6245 95.1822 52.6304 92.1443 54.1274C91.0226 51.9052 89.901 49.9638 89.714 48.5135C89.5037 46.8293 89.2467 45.8001 89.5037 43.7885C89.7608 41.7768 90.9292 38.9231 90.9292 38.6892C90.9058 38.4786 90.6721 37.4494 88.2652 37.426C85.8583 37.4026 83.7785 37.8939 83.5448 38.5254C83.3111 39.157 82.8438 40.6072 82.54 42.1043C82.1194 44.3031 77.7261 52.0924 75.2258 56.1858C74.4079 54.5952 73.7068 53.1918 73.5666 52.069C73.3563 50.3848 73.0993 49.3556 73.3563 47.3439C73.6134 45.3323 74.7818 42.4785 74.7818 42.2446C74.7584 42.0341 74.5247 41.0049 72.1178 40.9815C69.7109 40.9581 67.6311 41.4493 67.3974 42.0809C67.1637 42.7125 66.9067 44.2095 66.3926 45.6598C65.9019 47.11 60.0598 60.1156 58.5409 63.5073C57.7697 65.2383 57.0921 66.6183 56.6013 67.554C56.1106 68.4896 56.578 67.6242 56.5312 67.7177C56.1106 68.513 55.8769 68.9575 55.8769 68.9575V68.9809C55.5498 69.5656 55.1992 70.127 55.0357 70.127C54.9188 70.127 54.6851 68.5598 55.0824 66.4078C55.947 61.8933 58.0502 54.8525 58.0268 54.5952C58.0268 54.4783 58.4241 53.2385 56.6714 52.607C54.9656 51.9754 54.358 53.028 54.2178 53.028C54.0776 53.028 53.9607 53.4023 53.9607 53.4023C53.9607 53.4023 55.8536 45.4726 50.3387 45.4726C46.8802 45.4726 42.1131 49.2386 39.7529 52.6771C38.2573 53.4958 35.0793 55.2268 31.7143 57.0747C30.429 57.7764 29.097 58.525 27.8351 59.2033L27.5781 58.9226C20.8948 51.7883 8.53304 46.7358 9.04714 37.1453C9.23408 33.66 10.4492 24.4673 32.7892 13.333C51.0865 4.21042 65.7383 6.71329 68.2854 12.2804C71.9075 20.2334 60.4571 35.0167 41.4354 37.1453C34.1913 37.964 30.3823 35.1571 29.4242 34.1045C28.4193 33.0051 28.2791 32.9583 27.9052 33.1688C27.2977 33.4963 27.6716 34.4787 27.9052 35.0635C28.4661 36.5372 30.8029 39.157 34.7755 40.4669C38.2573 41.6131 46.7633 42.2446 57.0453 38.2681C68.5658 33.8004 77.5626 21.403 74.922 11.0407C72.2346 0.49121 54.7553 -2.9707 38.234 2.90051C28.396 6.4092 17.7401 11.8828 10.0753 19.0639C0.961755 27.5783 -0.487071 35.0167 0.120501 38.1044C2.247 49.1217 17.4129 56.3028 23.4887 61.6126C23.1849 61.7764 22.9045 61.9401 22.6474 62.0804C19.6095 63.5775 8.04231 69.6358 5.14466 76.045C1.87311 83.2963 5.65876 88.5126 8.18252 89.2143C15.9875 91.3897 23.9794 87.4834 28.3025 81.0508C32.6022 74.6182 32.0881 66.2675 30.1018 62.4547L30.0317 62.3144L32.4153 60.9109C33.9576 59.9986 35.4765 59.1565 36.8085 58.4314C36.0607 60.4664 35.5233 62.8757 35.2428 66.3844C34.9157 70.5013 36.5982 75.8345 38.8182 77.9397C39.7996 78.852 40.968 78.8754 41.6925 78.8754C44.263 78.8754 45.4314 76.7468 46.7166 74.1971C48.3056 71.0861 49.7077 67.4838 49.7077 67.4838C49.7077 67.4838 47.9551 77.238 52.7456 77.238C54.4982 77.238 56.2508 74.969 57.0453 73.7995V73.8229C57.0453 73.8229 57.0921 73.7527 57.1855 73.5889C57.3725 73.3083 57.466 73.1445 57.466 73.1445V73.0977C58.167 71.8814 59.7327 69.0978 62.0695 64.4897C65.084 58.5484 67.9816 51.1099 67.9816 51.1099C67.9816 51.1099 68.2621 52.9344 69.1267 55.9285C69.6408 57.7063 70.7624 59.6477 71.6271 61.5424C70.926 62.5249 70.5054 63.0863 70.5054 63.0863L70.5288 63.1097C69.9679 63.8582 69.337 64.6535 68.6827 65.4488C66.2991 68.3025 63.4482 71.5539 63.0743 72.4896C62.6303 73.5889 62.7238 74.4076 63.5884 75.0626C64.2194 75.5304 65.341 75.624 66.5328 75.5304C68.6827 75.3901 70.1782 74.8521 70.926 74.5246C72.0944 74.1036 73.4264 73.472 74.7117 72.5363C77.0485 70.8054 78.4739 68.3493 78.3337 65.0745C78.2636 63.2734 77.6794 61.4957 76.955 59.8115C77.1653 59.5074 77.3756 59.2033 77.5859 58.8758C81.2781 53.4724 84.129 47.5311 84.129 47.5311C84.129 47.5311 84.4094 49.3556 85.2741 52.3497C85.7181 53.8701 86.606 55.5309 87.4006 57.1683C83.9421 59.9986 81.7688 63.2734 81.0211 65.4254C79.6423 69.4019 80.7173 71.203 82.7503 71.6241C83.6617 71.8112 84.9703 71.3902 85.9517 70.9691C87.1669 70.5715 88.6391 69.8931 89.9944 68.8873C92.3312 67.1563 94.5746 64.747 94.4578 61.4957C94.3876 59.9986 93.9904 58.525 93.4529 57.1215C96.3973 55.9051 100.206 55.2034 105.044 55.7882C115.442 57.0045 117.499 63.5073 117.101 66.2207C116.704 68.9341 114.531 70.4311 113.807 70.899C113.082 71.3434 112.848 71.5071 112.919 71.8346C113.012 72.3258 113.339 72.3024 113.97 72.2089C114.835 72.0685 119.438 69.9867 119.625 64.981C119.906 58.5484 113.807 51.531 102.987 51.6011V51.6011ZM22.7876 78.6649C19.3525 82.4308 14.5153 83.8577 12.4589 82.6414C10.2389 81.3548 11.1035 75.8111 15.3332 71.8112C17.9037 69.3785 21.2453 67.133 23.4419 65.7529C23.9327 65.4488 24.6804 65.0043 25.5684 64.4664C25.7086 64.3728 25.8021 64.326 25.8021 64.326C25.9657 64.2324 26.1526 64.1155 26.3396 63.9985C27.9052 69.706 26.4097 74.7117 22.7876 78.6649V78.6649ZM47.9084 61.5658C46.7166 64.4897 44.1928 71.9983 42.6739 71.5773C41.3653 71.2264 40.5708 65.5423 42.4169 59.9284C43.3516 57.0981 45.3379 53.7298 46.5063 52.4198C48.3991 50.3146 50.4555 49.6129 50.9696 50.4784C51.5772 51.6011 48.6562 59.7413 47.9084 61.5658ZM68.6359 71.4837C68.1218 71.741 67.6545 71.9282 67.4442 71.7878C67.2806 71.6943 67.6545 71.3434 67.6545 71.3434C67.6545 71.3434 70.2483 68.5598 71.2765 67.2733C71.8607 66.5248 72.5618 65.6593 73.3096 64.6769V64.9576C73.3096 68.3259 70.0848 70.5715 68.6359 71.4837V71.4837ZM84.6198 67.8347C84.2459 67.554 84.2926 66.6885 85.5545 63.9751C86.0452 62.8991 87.1669 61.098 89.1064 59.3904C89.3401 60.0922 89.4803 60.7705 89.457 61.4021C89.4336 65.6125 86.4425 67.1797 84.6198 67.8347Z" fill="#CF649A"/>
</g>
<defs>
<clipPath id="clip0">
<rect width="120" height="90" fill="white"/>
</clipPath>
</defs>
</svg>
